<svg width="227" height="230" viewBox="0 0 227 230" fill="none" xmlns="http://www.w3.org/2000/svg">
<path d="M227 229.009H185.842V173.028H41.1576V229.009H0V114.979C0 98.333 2.84937 83.0123 8.54812 69.0169C14.2469 55.0216 22.1618 42.9877 32.2929 32.9153C42.424 22.8429 54.4019 14.997 68.2266 9.37763C82.0514 3.75828 97.1425 0.948608 113.5 0.948608H206.263C209.112 0.948608 211.803 1.47874 214.336 2.53899C216.869 3.59924 219.085 5.0836 220.985 6.99206C222.884 8.90052 224.362 11.1271 225.417 13.6717C226.472 16.2163 227 18.9199 227 21.7826V229.009ZM41.1576 131.678H185.842V42.2985H113.5C112.234 42.2985 109.543 42.5106 105.427 42.9347C101.417 43.2528 96.7204 44.154 91.3382 45.6383C86.0616 47.1227 80.4684 49.4022 74.5586 52.477C68.6488 55.5517 63.2139 59.7927 58.2538 65.2C53.2938 70.6073 49.1781 77.393 45.9066 85.5569C42.7406 93.6149 41.1576 103.422 41.1576 114.979V131.678Z" fill="white"/>
</svg>
